<svg id="Layer_1" data-name="Layer 1" xmlns="http://www.w3.org/2000/svg" viewBox="0 0 1721 586.46"><defs><style>.cls-1{fill:#020202;}</style></defs><rect class="cls-1" width="116.68" height="586.46"/><rect class="cls-1" x="136.64" width="19.96" height="586.46"/><rect class="cls-1" x="188.83" width="67.55" height="586.46"/><rect class="cls-1" x="369.99" width="139.71" height="586.46"/><rect class="cls-1" x="529.66" width="19.96" height="586.46"/><rect class="cls-1" x="563.43" width="67.55" height="586.46"/><rect class="cls-1" x="654.01" width="9.21" height="586.46"/><rect class="cls-1" x="687.79" width="72.16" height="586.46"/><rect class="cls-1" x="1047" width="75.26" height="586.46"/><rect class="cls-1" x="1139.15" width="19.96" height="586.46"/><rect class="cls-1" x="1177.53" width="9.21" height="586.46"/><rect class="cls-1" x="1349" width="48.07" height="586.46"/><rect class="cls-1" x="1463.08" width="67.55" height="586.46"/><rect class="cls-1" x="1545.98" width="9.21" height="586.46"/><rect class="cls-1" x="1608.93" width="112.07" height="586.46"/><rect class="cls-1" x="1569.01" width="21.49" height="586.46"/><rect class="cls-1" x="270.2" width="9.21" height="586.46"/><rect class="cls-1" x="1010.15" width="19.96" height="586.46"/><rect class="cls-1" x="989" width="10.1" height="586.46"/><rect class="cls-1" x="1304" width="35.94" height="586.46"/><rect class="cls-1" x="969" width="5.1" height="586.46"/><rect class="cls-1" x="775" width="10.1" height="586.46"/></svg>