<?xml version="1.0" encoding="utf-8"?>
<!-- Generator: Adobe Illustrator 16.0.0, SVG Export Plug-In . SVG Version: 6.00 Build 0)  -->
<!DOCTYPE svg PUBLIC "-//W3C//DTD SVG 1.1//EN" "http://www.w3.org/Graphics/SVG/1.1/DTD/svg11.dtd">
<svg version="1.1" id="Layer_1" xmlns="http://www.w3.org/2000/svg" xmlns:xlink="http://www.w3.org/1999/xlink" x="0px" y="0px"
	 width="400px" height="200px" viewBox="0 0 400 200" enable-background="new 0 0 400 200" xml:space="preserve">
<path fill="#010101" d="M152,30.073c-1.178,0.521-2.442,0.875-3.771,1.034c1.355-0.812,2.396-2.099,2.887-3.632
	c-1.269,0.752-2.674,1.298-4.169,1.593c-1.197-1.276-2.904-2.073-4.793-2.073c-3.625,0-6.564,2.939-6.564,6.565
	c0,0.515,0.058,1.016,0.17,1.497c-5.457-0.274-10.294-2.888-13.532-6.86c-0.565,0.97-0.889,2.098-0.889,3.301
	c0,2.278,1.159,4.287,2.92,5.464c-1.076-0.034-2.088-0.329-2.973-0.821c-0.001,0.027-0.001,0.055-0.001,0.083
	c0,3.181,2.263,5.834,5.267,6.438c-0.551,0.149-1.131,0.23-1.729,0.23c-0.423,0-0.834-0.041-1.235-0.118
	c0.835,2.608,3.26,4.507,6.133,4.56c-2.247,1.76-5.078,2.811-8.153,2.811c-0.53,0-1.053-0.031-1.566-0.093
	c2.905,1.863,6.356,2.95,10.063,2.95c12.076,0,18.68-10.004,18.68-18.68c0-0.285-0.007-0.567-0.019-0.849
	C150.008,32.545,151.12,31.389,152,30.073z"/>
<path fill="#1D1D1B" d="M200.678,41.684V56h6.965V41.752h4.754l1.15-5.939h-5.854c0,0,0-2.795,0-4.357
	c0-0.602,0.32-1.406,1.295-1.406c1.502,0,3.386,0,3.386,0V24c0,0-3.051,0-6.32,0c-2.18,0-5.397,2.686-5.397,5.54
	c0,2.939,0,6.104,0,6.104H197v6.015L200.678,41.684z"/>
<path fill="#010101" d="M292,24h-24c-2.208,0-4,1.792-4,4v24c0,2.208,1.792,4,4,4h24c2.208,0,4-1.792,4-4V28
	C296,25.792,294.208,24,292,24z M280,36c3.684,0,4,4,4,4s0.118,4-4,4c-4.116,0-4-4-4-4S276.316,36,280,36z M292,50
	c0,1.105-0.895,2-2,2h-20c-1.105,0-2-0.895-2-2V40c0-1.105,0.895-2,2-2h2.284c-0.168,0.643-0.284,1.305-0.284,2c0,4.418,3.582,8,8,8
	s8-3.582,8-8c0-0.695-0.118-1.357-0.284-2H290c1.105,0,2,0.895,2,2V50z M292,32c0,1.104-0.895,2-2,2h-2c-1.104,0-2-0.896-2-2v-2
	c0-1.104,0.896-2,2-2h2c1.105,0,2,0.896,2,2V32z"/>
<path fill="#010101" d="M54.405,37.641v7.317c0,1.857-0.024,2.927,0.173,3.454c0.195,0.523,0.686,1.066,1.219,1.381
	c0.709,0.425,1.517,0.637,2.428,0.637c1.621,0,2.578-0.214,4.18-1.267v4.811l0,0c-1.365,0.643-2.559,1.019-3.666,1.278
	c-1.109,0.258-2.309,0.389-3.596,0.389c-1.464,0-2.327-0.185-3.451-0.553c-1.124-0.37-2.083-0.899-2.876-1.579
	c-0.795-0.685-1.344-1.413-1.651-2.183s-0.46-1.888-0.46-3.351V36.753H42.41v-4.531c1.256-0.407,2.662-0.993,3.556-1.755
	c0.898-0.764,1.618-1.678,2.16-2.748c0.543-1.067,0.917-2.429,1.121-4.078h5.159v7.999h7.999v6.001H54.405z"/>
<path fill="none" stroke="#000000" stroke-width="4" stroke-miterlimit="10" d="M359.675,53.68h-21.054c0,0-4.954-0.156-4.954-4.799
	c0-4.645,0-13.004,0-13.004"/>
<path fill="none" stroke="#000000" stroke-width="4" stroke-miterlimit="10" d="M359.675,25.66h-21.054c0,0-4.954,0.156-4.954,4.799
	c0,4.645,0,13.004,0,13.004"/>
<path fill="none" stroke="#000000" stroke-width="4" stroke-miterlimit="10" d="M344.812,53.68h21.054c0,0,4.954-0.156,4.954-4.799
	c0-4.645,0-13.004,0-13.004"/>
<path fill="none" stroke="#000000" stroke-width="4" stroke-miterlimit="10" d="M344.812,25.66h21.054c0,0,4.954,0.156,4.954,4.799
	c0,4.645,0,13.004,0,13.004"/>
<polyline fill="none" stroke="#000000" stroke-width="4" stroke-miterlimit="10" points="334.529,26.677 352.401,41.961 
	369.097,26.912 "/>
</svg>
